<?xml version="1.0" encoding="utf-8"?><svg version="1.1" id="Layer_1" xmlns="http://www.w3.org/2000/svg" xmlns:xlink="http://www.w3.org/1999/xlink" x="0px" y="0px"  width="24px" height="24px" viewBox="-293 385 24 24" enable-background="new -293 385 24 24" xml:space="preserve"><path fill="none" d="M-259.3,400.6c1.8,0,3.2-1.4,3.2-3.2c0-0.5-0.1-1-0.3-1.4c-0.5-1-1.6-1.8-2.8-1.8s-2.3,0.7-2.8,1.8 c-0.2,0.4-0.3,0.9-0.3,1.4C-262.5,399.1-261,400.6-259.3,400.6z"/><path fill="none" d="M-254.3,397.4c0,2.8-2.2,5-5,5c-2.8,0-5-2.2-5-5c0-0.5,0.1-1,0.2-1.4h-1.7v7.4c0,0.3,0.2,0.5,0.5,0.5h12 c0.3,0,0.5-0.2,0.5-0.5V396h-1.7C-254.4,396.4-254.3,396.9-254.3,397.4z"/><path fill="#231F20" d="M-274.1,388h-13.8c-1.2,0-2.1,1-2.1,2.1v13.8c0,1.2,1,2.1,2.1,2.1h13.8c1.2,0,2.1-1,2.1-2.1v-13.8 C-272,389-273,388-274.1,388z M-284,395.5c0.6-1.1,1.7-1.9,3-1.9s2.4,0.8,3,1.9c0.2,0.5,0.4,1,0.4,1.5c0,1.9-1.5,3.4-3.4,3.4 s-3.4-1.5-3.4-3.4C-284.4,396.5-284.2,396-284,395.5z M-274.1,403.4c0,0.3-0.2,0.5-0.5,0.5h-12.7c-0.3,0-0.5-0.2-0.5-0.5v-7.9h1.8 c-0.1,0.5-0.2,1-0.2,1.5c0,2.9,2.4,5.3,5.3,5.3c2.9,0,5.3-2.4,5.3-5.3c0-0.5-0.1-1-0.2-1.5h1.8V403.4z M-274.1,393 c0,0.3-0.2,0.5-0.5,0.5h-2.4c-0.3,0-0.5-0.2-0.5-0.5v-2.4c0-0.3,0.2-0.5,0.5-0.5h2.4c0.3,0,0.5,0.2,0.5,0.5V393z"/></svg>