<?xml version="1.0" encoding="utf-8"?><svg version="1.1" id="Layer_1" xmlns="http://www.w3.org/2000/svg" xmlns:xlink="http://www.w3.org/1999/xlink" x="0px" y="0px"  width="24px" height="24px" viewBox="-467 269 24 24" enable-background="new -467 269 24 24" xml:space="preserve"><path d="M-453.7,286c-1.2,0-2.4-0.6-2.9-1.4c0,0-0.6,2.4-0.8,3c-0.3,1.1-1,2.4-1.6,3.3l-0.9-0.3c-0.1-1-0.2-2.5,0.1-3.6 c0.2-0.9,1.5-6.2,1.5-6.2s-0.4-0.8-0.4-1.9c0-1.7,1-3,2.3-3c1.1,0,1.6,0.8,1.6,1.8c0,1.1-0.7,2.7-1,4.1c-0.3,1.2,0.6,2.3,1.9,2.3 c2.2,0,3.9-2.3,3.9-5.7c0-3-2.2-5.1-5.2-5.1c-3.6,0-5.6,2.7-5.6,5.4c0,1.1,0.4,2.3,0.9,2.9c0.1,0.2,0.1,0.2,0.1,0.4 c-0.1,0.4-0.3,1.2-0.3,1.4c-0.1,0.2-0.2,0.3-0.4,0.2c-1.6-0.7-2.5-3-2.5-4.8c0-3.9,2.9-7.6,8.3-7.6c4.3,0,7.7,3.1,7.7,7.2 C-447.3,282.5-450,286-453.7,286L-453.7,286z"/></svg>